<?xml version="1.0" encoding="utf-8" standalone="no"?>
<!DOCTYPE svg PUBLIC "-//W3C//DTD SVG 1.1//EN"
  "http://www.w3.org/Graphics/SVG/1.1/DTD/svg11.dtd">
<svg xmlns:xlink="http://www.w3.org/1999/xlink" width="432pt" height="360pt" viewBox="0 0 432 360" xmlns="http://www.w3.org/2000/svg" version="1.1">
 <metadata>
  <rdf:RDF xmlns:dc="http://purl.org/dc/elements/1.1/" xmlns:cc="http://creativecommons.org/ns#" xmlns:rdf="http://www.w3.org/1999/02/22-rdf-syntax-ns#">
   <cc:Work>
    <dc:type rdf:resource="http://purl.org/dc/dcmitype/StillImage"/>
    <dc:date>2025-07-14T18:07:54.600772</dc:date>
    <dc:format>image/svg+xml</dc:format>
    <dc:creator>
     <cc:Agent>
      <dc:title>Matplotlib v3.7.5, https://matplotlib.org/</dc:title>
     </cc:Agent>
    </dc:creator>
   </cc:Work>
  </rdf:RDF>
 </metadata>
 <defs>
  <style type="text/css">*{stroke-linejoin: round; stroke-linecap: butt}</style>
 </defs>
 <g id="figure_1">
  <g id="patch_1">
   <path d="M 0 360 
L 432 360 
L 432 0 
L 0 0 
z
" style="fill: #ffffff"/>
  </g>
  <g id="axes_1">
   <g id="patch_2">
    <path d="M 52.13 341.28 
L 421.2 341.28 
L 421.2 28.32 
L 52.13 28.32 
z
" style="fill: #ffffff"/>
   </g>
   <g id="PolyCollection_1">
    <defs>
     <path id="m4d76b80841" d="M 384.293 -23.687619 
L 89.037 -23.687619 
L 98.236271 -23.737797 
L 122.535288 -23.787975 
L 153.930584 -23.838153 
L 183.931247 -23.888331 
L 207.111689 -23.938509 
L 222.10241 -23.988687 
L 230.355629 -24.038865 
L 234.261476 -24.089043 
L 235.859944 -24.139221 
L 236.427907 -24.189399 
L 236.603606 -24.239577 
L 236.651022 -24.289755 
L 236.662202 -24.339933 
L 236.664507 -24.390111 
L 236.664924 -24.440289 
L 236.66499 -24.490467 
L 236.664999 -24.540645 
L 236.665 -24.590823 
L 236.665 -24.641 
L 236.665 -24.691178 
L 236.665 -24.741356 
L 236.665 -24.791534 
L 236.665 -24.841712 
L 236.665 -24.89189 
L 236.665 -24.942068 
L 236.665 -24.992246 
L 236.665 -25.042424 
L 236.665 -25.092602 
L 236.665 -25.14278 
L 236.665 -25.192958 
L 236.665 -25.243136 
L 236.665 -25.293314 
L 236.665 -25.343492 
L 236.665 -25.39367 
L 236.665 -25.443848 
L 236.665 -25.494026 
L 236.665 -25.544204 
L 236.665 -25.594382 
L 236.665 -25.64456 
L 236.665 -25.694738 
L 236.665 -25.744916 
L 236.665 -25.795094 
L 236.665 -25.845272 
L 236.665 -25.89545 
L 236.665 -25.945628 
L 236.665 -25.995806 
L 236.665 -26.045984 
L 236.665 -26.096162 
L 236.665 -26.14634 
L 236.665 -26.196518 
L 236.665 -26.246696 
L 236.665 -26.296873 
L 236.665 -26.347051 
L 236.665 -26.397229 
L 236.665 -26.447407 
L 236.665 -26.497585 
L 236.665 -26.547763 
L 236.665 -26.597941 
L 236.665 -26.648119 
L 236.665 -26.698297 
L 236.665 -26.748475 
L 236.665 -26.798653 
L 236.665 -26.848831 
L 236.665 -26.899009 
L 236.665 -26.949187 
L 236.665 -26.999365 
L 236.665 -27.049543 
L 236.665 -27.099721 
L 236.665 -27.149899 
L 236.665 -27.200077 
L 236.665 -27.250255 
L 236.665 -27.300433 
L 236.665 -27.350611 
L 236.665 -27.400789 
L 236.665 -27.450967 
L 236.665 -27.501145 
L 236.665 -27.551323 
L 236.665 -27.601501 
L 236.665 -27.651679 
L 236.665 -27.701857 
L 236.665 -27.752035 
L 236.665 -27.802213 
L 236.665 -27.852391 
L 236.665 -27.902569 
L 236.664997 -27.952747 
L 236.664983 -28.002924 
L 236.664914 -28.053102 
L 236.664623 -28.10328 
L 236.663545 -28.153458 
L 236.660061 -28.203636 
L 236.650254 -28.253814 
L 236.626292 -28.303992 
L 236.575659 -28.35417 
L 236.483691 -28.404348 
L 236.34148 -28.454526 
L 236.157427 -28.504704 
L 235.964818 -28.554882 
L 235.815744 -28.60506 
L 235.759307 -28.655238 
L 237.570693 -28.655238 
L 237.570693 -28.655238 
L 237.514256 -28.60506 
L 237.365182 -28.554882 
L 237.172573 -28.504704 
L 236.98852 -28.454526 
L 236.846309 -28.404348 
L 236.754341 -28.35417 
L 236.703708 -28.303992 
L 236.679746 -28.253814 
L 236.669939 -28.203636 
L 236.666455 -28.153458 
L 236.665377 -28.10328 
L 236.665086 -28.053102 
L 236.665017 -28.002924 
L 236.665003 -27.952747 
L 236.665 -27.902569 
L 236.665 -27.852391 
L 236.665 -27.802213 
L 236.665 -27.752035 
L 236.665 -27.701857 
L 236.665 -27.651679 
L 236.665 -27.601501 
L 236.665 -27.551323 
L 236.665 -27.501145 
L 236.665 -27.450967 
L 236.665 -27.400789 
L 236.665 -27.350611 
L 236.665 -27.300433 
L 236.665 -27.250255 
L 236.665 -27.200077 
L 236.665 -27.149899 
L 236.665 -27.099721 
L 236.665 -27.049543 
L 236.665 -26.999365 
L 236.665 -26.949187 
L 236.665 -26.899009 
L 236.665 -26.848831 
L 236.665 -26.798653 
L 236.665 -26.748475 
L 236.665 -26.698297 
L 236.665 -26.648119 
L 236.665 -26.597941 
L 236.665 -26.547763 
L 236.665 -26.497585 
L 236.665 -26.447407 
L 236.665 -26.397229 
L 236.665 -26.347051 
L 236.665 -26.296873 
L 236.665 -26.246696 
L 236.665 -26.196518 
L 236.665 -26.14634 
L 236.665 -26.096162 
L 236.665 -26.045984 
L 236.665 -25.995806 
L 236.665 -25.945628 
L 236.665 -25.89545 
L 236.665 -25.845272 
L 236.665 -25.795094 
L 236.665 -25.744916 
L 236.665 -25.694738 
L 236.665 -25.64456 
L 236.665 -25.594382 
L 236.665 -25.544204 
L 236.665 -25.494026 
L 236.665 -25.443848 
L 236.665 -25.39367 
L 236.665 -25.343492 
L 236.665 -25.293314 
L 236.665 -25.243136 
L 236.665 -25.192958 
L 236.665 -25.14278 
L 236.665 -25.092602 
L 236.665 -25.042424 
L 236.665 -24.992246 
L 236.665 -24.942068 
L 236.665 -24.89189 
L 236.665 -24.841712 
L 236.665 -24.791534 
L 236.665 -24.741356 
L 236.665 -24.691178 
L 236.665 -24.641 
L 236.665 -24.590823 
L 236.665001 -24.540645 
L 236.66501 -24.490467 
L 236.665076 -24.440289 
L 236.665493 -24.390111 
L 236.667798 -24.339933 
L 236.678978 -24.289755 
L 236.726394 -24.239577 
L 236.902093 -24.189399 
L 237.470056 -24.139221 
L 239.068524 -24.089043 
L 242.974371 -24.038865 
L 251.22759 -23.988687 
L 266.218311 -23.938509 
L 289.398753 -23.888331 
L 319.399416 -23.838153 
L 350.794712 -23.787975 
L 375.093729 -23.737797 
L 384.293 -23.687619 
z
" style="stroke: #777777; stroke-width: 1.25"/>
    </defs>
    <g clip-path="url(#p121139997b)">
     <use xlink:href="#m4d76b80841" x="0" y="360" style="fill: #a4c1e7; stroke: #777777; stroke-width: 1.25"/>
    </g>
   </g>
   <g id="matplotlib.axis_1"/>
   <g id="matplotlib.axis_2">
    <g id="ytick_1">
     <g id="line2d_1">
      <path d="M 52.13 341.28 
L 421.2 341.28 
" clip-path="url(#p121139997b)" style="fill: none; stroke: #b0b0b0; stroke-width: 0.8; stroke-linecap: square"/>
     </g>
     <g id="line2d_2">
      <defs>
       <path id="m0e1bdaaee5" d="M 0 0 
L -3.5 0 
" style="stroke: #000000; stroke-width: 0.8"/>
      </defs>
      <g>
       <use xlink:href="#m0e1bdaaee5" x="52.13" y="341.28" style="stroke: #000000; stroke-width: 0.8"/>
      </g>
     </g>
     <g id="text_1">
      <!-- 0 -->
      <g transform="translate(36.780625 345.839062) scale(0.12 -0.12)">
       <defs>
        <path id="DejaVuSans-Bold-30" d="M 2944 2338 
Q 2944 3213 2780 3570 
Q 2616 3928 2228 3928 
Q 1841 3928 1675 3570 
Q 1509 3213 1509 2338 
Q 1509 1453 1675 1090 
Q 1841 728 2228 728 
Q 2613 728 2778 1090 
Q 2944 1453 2944 2338 
z
M 4147 2328 
Q 4147 1169 3647 539 
Q 3147 -91 2228 -91 
Q 1306 -91 806 539 
Q 306 1169 306 2328 
Q 306 3491 806 4120 
Q 1306 4750 2228 4750 
Q 3147 4750 3647 4120 
Q 4147 3491 4147 2328 
z
" transform="scale(0.015625)"/>
       </defs>
       <use xlink:href="#DejaVuSans-Bold-30"/>
      </g>
     </g>
    </g>
    <g id="ytick_2">
     <g id="line2d_3">
      <path d="M 52.13 291.60381 
L 421.2 291.60381 
" clip-path="url(#p121139997b)" style="fill: none; stroke: #b0b0b0; stroke-width: 0.8; stroke-linecap: square"/>
     </g>
     <g id="line2d_4">
      <g>
       <use xlink:href="#m0e1bdaaee5" x="52.13" y="291.60381" style="stroke: #000000; stroke-width: 0.8"/>
      </g>
     </g>
     <g id="text_2">
      <!-- 10 -->
      <g transform="translate(28.43125 296.162872) scale(0.12 -0.12)">
       <defs>
        <path id="DejaVuSans-Bold-31" d="M 750 831 
L 1813 831 
L 1813 3847 
L 722 3622 
L 722 4441 
L 1806 4666 
L 2950 4666 
L 2950 831 
L 4013 831 
L 4013 0 
L 750 0 
L 750 831 
z
" transform="scale(0.015625)"/>
       </defs>
       <use xlink:href="#DejaVuSans-Bold-31"/>
       <use xlink:href="#DejaVuSans-Bold-30" x="69.580078"/>
      </g>
     </g>
    </g>
    <g id="ytick_3">
     <g id="line2d_5">
      <path d="M 52.13 241.927619 
L 421.2 241.927619 
" clip-path="url(#p121139997b)" style="fill: none; stroke: #b0b0b0; stroke-width: 0.8; stroke-linecap: square"/>
     </g>
     <g id="line2d_6">
      <g>
       <use xlink:href="#m0e1bdaaee5" x="52.13" y="241.927619" style="stroke: #000000; stroke-width: 0.8"/>
      </g>
     </g>
     <g id="text_3">
      <!-- 20 -->
      <g transform="translate(28.43125 246.486682) scale(0.12 -0.12)">
       <defs>
        <path id="DejaVuSans-Bold-32" d="M 1844 884 
L 3897 884 
L 3897 0 
L 506 0 
L 506 884 
L 2209 2388 
Q 2438 2594 2547 2791 
Q 2656 2988 2656 3200 
Q 2656 3528 2436 3728 
Q 2216 3928 1850 3928 
Q 1569 3928 1234 3808 
Q 900 3688 519 3450 
L 519 4475 
Q 925 4609 1322 4679 
Q 1719 4750 2100 4750 
Q 2938 4750 3402 4381 
Q 3866 4013 3866 3353 
Q 3866 2972 3669 2642 
Q 3472 2313 2841 1759 
L 1844 884 
z
" transform="scale(0.015625)"/>
       </defs>
       <use xlink:href="#DejaVuSans-Bold-32"/>
       <use xlink:href="#DejaVuSans-Bold-30" x="69.580078"/>
      </g>
     </g>
    </g>
    <g id="ytick_4">
     <g id="line2d_7">
      <path d="M 52.13 192.251429 
L 421.2 192.251429 
" clip-path="url(#p121139997b)" style="fill: none; stroke: #b0b0b0; stroke-width: 0.8; stroke-linecap: square"/>
     </g>
     <g id="line2d_8">
      <g>
       <use xlink:href="#m0e1bdaaee5" x="52.13" y="192.251429" style="stroke: #000000; stroke-width: 0.8"/>
      </g>
     </g>
     <g id="text_4">
      <!-- 30 -->
      <g transform="translate(28.43125 196.810491) scale(0.12 -0.12)">
       <defs>
        <path id="DejaVuSans-Bold-33" d="M 2981 2516 
Q 3453 2394 3698 2092 
Q 3944 1791 3944 1325 
Q 3944 631 3412 270 
Q 2881 -91 1863 -91 
Q 1503 -91 1142 -33 
Q 781 25 428 141 
L 428 1069 
Q 766 900 1098 814 
Q 1431 728 1753 728 
Q 2231 728 2486 893 
Q 2741 1059 2741 1369 
Q 2741 1688 2480 1852 
Q 2219 2016 1709 2016 
L 1228 2016 
L 1228 2791 
L 1734 2791 
Q 2188 2791 2409 2933 
Q 2631 3075 2631 3366 
Q 2631 3634 2415 3781 
Q 2200 3928 1806 3928 
Q 1516 3928 1219 3862 
Q 922 3797 628 3669 
L 628 4550 
Q 984 4650 1334 4700 
Q 1684 4750 2022 4750 
Q 2931 4750 3382 4451 
Q 3834 4153 3834 3553 
Q 3834 3144 3618 2883 
Q 3403 2622 2981 2516 
z
" transform="scale(0.015625)"/>
       </defs>
       <use xlink:href="#DejaVuSans-Bold-33"/>
       <use xlink:href="#DejaVuSans-Bold-30" x="69.580078"/>
      </g>
     </g>
    </g>
    <g id="ytick_5">
     <g id="line2d_9">
      <path d="M 52.13 142.575238 
L 421.2 142.575238 
" clip-path="url(#p121139997b)" style="fill: none; stroke: #b0b0b0; stroke-width: 0.8; stroke-linecap: square"/>
     </g>
     <g id="line2d_10">
      <g>
       <use xlink:href="#m0e1bdaaee5" x="52.13" y="142.575238" style="stroke: #000000; stroke-width: 0.8"/>
      </g>
     </g>
     <g id="text_5">
      <!-- 40 -->
      <g transform="translate(28.43125 147.134301) scale(0.12 -0.12)">
       <defs>
        <path id="DejaVuSans-Bold-34" d="M 2356 3675 
L 1038 1722 
L 2356 1722 
L 2356 3675 
z
M 2156 4666 
L 3494 4666 
L 3494 1722 
L 4159 1722 
L 4159 850 
L 3494 850 
L 3494 0 
L 2356 0 
L 2356 850 
L 288 850 
L 288 1881 
L 2156 4666 
z
" transform="scale(0.015625)"/>
       </defs>
       <use xlink:href="#DejaVuSans-Bold-34"/>
       <use xlink:href="#DejaVuSans-Bold-30" x="69.580078"/>
      </g>
     </g>
    </g>
    <g id="ytick_6">
     <g id="line2d_11">
      <path d="M 52.13 92.899048 
L 421.2 92.899048 
" clip-path="url(#p121139997b)" style="fill: none; stroke: #b0b0b0; stroke-width: 0.8; stroke-linecap: square"/>
     </g>
     <g id="line2d_12">
      <g>
       <use xlink:href="#m0e1bdaaee5" x="52.13" y="92.899048" style="stroke: #000000; stroke-width: 0.8"/>
      </g>
     </g>
     <g id="text_6">
      <!-- 50 -->
      <g transform="translate(28.43125 97.45811) scale(0.12 -0.12)">
       <defs>
        <path id="DejaVuSans-Bold-35" d="M 678 4666 
L 3669 4666 
L 3669 3781 
L 1638 3781 
L 1638 3059 
Q 1775 3097 1914 3117 
Q 2053 3138 2203 3138 
Q 3056 3138 3531 2711 
Q 4006 2284 4006 1522 
Q 4006 766 3489 337 
Q 2972 -91 2053 -91 
Q 1656 -91 1267 -14 
Q 878 63 494 219 
L 494 1166 
Q 875 947 1217 837 
Q 1559 728 1863 728 
Q 2300 728 2551 942 
Q 2803 1156 2803 1522 
Q 2803 1891 2551 2103 
Q 2300 2316 1863 2316 
Q 1603 2316 1309 2248 
Q 1016 2181 678 2041 
L 678 4666 
z
" transform="scale(0.015625)"/>
       </defs>
       <use xlink:href="#DejaVuSans-Bold-35"/>
       <use xlink:href="#DejaVuSans-Bold-30" x="69.580078"/>
      </g>
     </g>
    </g>
    <g id="ytick_7">
     <g id="line2d_13">
      <path d="M 52.13 43.222857 
L 421.2 43.222857 
" clip-path="url(#p121139997b)" style="fill: none; stroke: #b0b0b0; stroke-width: 0.8; stroke-linecap: square"/>
     </g>
     <g id="line2d_14">
      <g>
       <use xlink:href="#m0e1bdaaee5" x="52.13" y="43.222857" style="stroke: #000000; stroke-width: 0.8"/>
      </g>
     </g>
     <g id="text_7">
      <!-- 60 -->
      <g transform="translate(28.43125 47.78192) scale(0.12 -0.12)">
       <defs>
        <path id="DejaVuSans-Bold-36" d="M 2316 2303 
Q 2000 2303 1842 2098 
Q 1684 1894 1684 1484 
Q 1684 1075 1842 870 
Q 2000 666 2316 666 
Q 2634 666 2792 870 
Q 2950 1075 2950 1484 
Q 2950 1894 2792 2098 
Q 2634 2303 2316 2303 
z
M 3803 4544 
L 3803 3681 
Q 3506 3822 3243 3889 
Q 2981 3956 2731 3956 
Q 2194 3956 1894 3657 
Q 1594 3359 1544 2772 
Q 1750 2925 1990 3001 
Q 2231 3078 2516 3078 
Q 3231 3078 3670 2659 
Q 4109 2241 4109 1563 
Q 4109 813 3618 361 
Q 3128 -91 2303 -91 
Q 1394 -91 895 523 
Q 397 1138 397 2266 
Q 397 3422 980 4083 
Q 1563 4744 2578 4744 
Q 2900 4744 3203 4694 
Q 3506 4644 3803 4544 
z
" transform="scale(0.015625)"/>
       </defs>
       <use xlink:href="#DejaVuSans-Bold-36"/>
       <use xlink:href="#DejaVuSans-Bold-30" x="69.580078"/>
      </g>
     </g>
    </g>
    <g id="text_8">
     <!-- Beams -->
     <g transform="translate(21.519688 211.0675) rotate(-90) scale(0.14 -0.14)">
      <defs>
       <path id="DejaVuSans-Bold-42" d="M 2456 2859 
Q 2741 2859 2887 2984 
Q 3034 3109 3034 3353 
Q 3034 3594 2887 3720 
Q 2741 3847 2456 3847 
L 1791 3847 
L 1791 2859 
L 2456 2859 
z
M 2497 819 
Q 2859 819 3042 972 
Q 3225 1125 3225 1434 
Q 3225 1738 3044 1889 
Q 2863 2041 2497 2041 
L 1791 2041 
L 1791 819 
L 2497 819 
z
M 3616 2497 
Q 4003 2384 4215 2081 
Q 4428 1778 4428 1338 
Q 4428 663 3972 331 
Q 3516 0 2584 0 
L 588 0 
L 588 4666 
L 2394 4666 
Q 3366 4666 3802 4372 
Q 4238 4078 4238 3431 
Q 4238 3091 4078 2852 
Q 3919 2613 3616 2497 
z
" transform="scale(0.015625)"/>
       <path id="DejaVuSans-Bold-65" d="M 4031 1759 
L 4031 1441 
L 1416 1441 
Q 1456 1047 1700 850 
Q 1944 653 2381 653 
Q 2734 653 3104 758 
Q 3475 863 3866 1075 
L 3866 213 
Q 3469 63 3072 -14 
Q 2675 -91 2278 -91 
Q 1328 -91 801 392 
Q 275 875 275 1747 
Q 275 2603 792 3093 
Q 1309 3584 2216 3584 
Q 3041 3584 3536 3087 
Q 4031 2591 4031 1759 
z
M 2881 2131 
Q 2881 2450 2695 2645 
Q 2509 2841 2209 2841 
Q 1884 2841 1681 2658 
Q 1478 2475 1428 2131 
L 2881 2131 
z
" transform="scale(0.015625)"/>
       <path id="DejaVuSans-Bold-61" d="M 2106 1575 
Q 1756 1575 1579 1456 
Q 1403 1338 1403 1106 
Q 1403 894 1545 773 
Q 1688 653 1941 653 
Q 2256 653 2472 879 
Q 2688 1106 2688 1447 
L 2688 1575 
L 2106 1575 
z
M 3816 1997 
L 3816 0 
L 2688 0 
L 2688 519 
Q 2463 200 2181 54 
Q 1900 -91 1497 -91 
Q 953 -91 614 226 
Q 275 544 275 1050 
Q 275 1666 698 1953 
Q 1122 2241 2028 2241 
L 2688 2241 
L 2688 2328 
Q 2688 2594 2478 2717 
Q 2269 2841 1825 2841 
Q 1466 2841 1156 2769 
Q 847 2697 581 2553 
L 581 3406 
Q 941 3494 1303 3539 
Q 1666 3584 2028 3584 
Q 2975 3584 3395 3211 
Q 3816 2838 3816 1997 
z
" transform="scale(0.015625)"/>
       <path id="DejaVuSans-Bold-6d" d="M 3781 2919 
Q 3994 3244 4286 3414 
Q 4578 3584 4928 3584 
Q 5531 3584 5847 3212 
Q 6163 2841 6163 2131 
L 6163 0 
L 5038 0 
L 5038 1825 
Q 5041 1866 5042 1909 
Q 5044 1953 5044 2034 
Q 5044 2406 4934 2573 
Q 4825 2741 4581 2741 
Q 4263 2741 4089 2478 
Q 3916 2216 3909 1719 
L 3909 0 
L 2784 0 
L 2784 1825 
Q 2784 2406 2684 2573 
Q 2584 2741 2328 2741 
Q 2006 2741 1831 2477 
Q 1656 2213 1656 1722 
L 1656 0 
L 531 0 
L 531 3500 
L 1656 3500 
L 1656 2988 
Q 1863 3284 2130 3434 
Q 2397 3584 2719 3584 
Q 3081 3584 3359 3409 
Q 3638 3234 3781 2919 
z
" transform="scale(0.015625)"/>
       <path id="DejaVuSans-Bold-73" d="M 3272 3391 
L 3272 2541 
Q 2913 2691 2578 2766 
Q 2244 2841 1947 2841 
Q 1628 2841 1473 2761 
Q 1319 2681 1319 2516 
Q 1319 2381 1436 2309 
Q 1553 2238 1856 2203 
L 2053 2175 
Q 2913 2066 3209 1816 
Q 3506 1566 3506 1031 
Q 3506 472 3093 190 
Q 2681 -91 1863 -91 
Q 1516 -91 1145 -36 
Q 775 19 384 128 
L 384 978 
Q 719 816 1070 734 
Q 1422 653 1784 653 
Q 2113 653 2278 743 
Q 2444 834 2444 1013 
Q 2444 1163 2330 1236 
Q 2216 1309 1875 1350 
L 1678 1375 
Q 931 1469 631 1722 
Q 331 1975 331 2491 
Q 331 3047 712 3315 
Q 1094 3584 1881 3584 
Q 2191 3584 2531 3537 
Q 2872 3491 3272 3391 
z
" transform="scale(0.015625)"/>
      </defs>
      <use xlink:href="#DejaVuSans-Bold-42"/>
      <use xlink:href="#DejaVuSans-Bold-65" x="76.220703"/>
      <use xlink:href="#DejaVuSans-Bold-61" x="144.042969"/>
      <use xlink:href="#DejaVuSans-Bold-6d" x="211.523438"/>
      <use xlink:href="#DejaVuSans-Bold-73" x="315.722656"/>
     </g>
    </g>
   </g>
   <g id="line2d_15">
    <path d="M 236.665 336.312381 
L 236.665 336.312381 
" clip-path="url(#p121139997b)" style="fill: none; stroke: #777777; stroke-width: 1.875; stroke-linecap: square"/>
   </g>
   <g id="line2d_16">
    <path d="M 236.665 336.312381 
L 236.665 336.312381 
" clip-path="url(#p121139997b)" style="fill: none; stroke: #777777; stroke-width: 5.625; stroke-linecap: square"/>
   </g>
   <g id="line2d_17">
    <path d="M 236.665 336.312381 
" clip-path="url(#p121139997b)" style="fill: none; stroke: #777777; stroke-width: 1.5; stroke-linecap: square"/>
    <defs>
     <path id="mf83d1eb41c" d="M 2.34375 0 
L -2.34375 -0 
" style="stroke: #ffffff; stroke-width: 1.125"/>
    </defs>
    <g clip-path="url(#p121139997b)">
     <use xlink:href="#mf83d1eb41c" x="236.665" y="336.312381" style="fill: #ffffff; stroke: #ffffff; stroke-width: 1.125"/>
    </g>
   </g>
   <g id="patch_3">
    <path d="M 52.13 341.28 
L 52.13 28.32 
" style="fill: none; stroke: #000000; stroke-width: 0.8; stroke-linejoin: miter; stroke-linecap: square"/>
   </g>
   <g id="patch_4">
    <path d="M 421.2 341.28 
L 421.2 28.32 
" style="fill: none; stroke: #000000; stroke-width: 0.8; stroke-linejoin: miter; stroke-linecap: square"/>
   </g>
   <g id="patch_5">
    <path d="M 52.13 341.28 
L 421.2 341.28 
" style="fill: none; stroke: #000000; stroke-width: 0.8; stroke-linejoin: miter; stroke-linecap: square"/>
   </g>
   <g id="patch_6">
    <path d="M 52.13 28.32 
L 421.2 28.32 
" style="fill: none; stroke: #000000; stroke-width: 0.8; stroke-linejoin: miter; stroke-linecap: square"/>
   </g>
   <g id="text_9">
    <!-- Beams Checked (14 dB) -->
    <g transform="translate(130.02375 22.32) scale(0.16 -0.16)">
     <defs>
      <path id="DejaVuSans-Bold-20" transform="scale(0.015625)"/>
      <path id="DejaVuSans-Bold-43" d="M 4288 256 
Q 3956 84 3597 -3 
Q 3238 -91 2847 -91 
Q 1681 -91 1000 561 
Q 319 1213 319 2328 
Q 319 3447 1000 4098 
Q 1681 4750 2847 4750 
Q 3238 4750 3597 4662 
Q 3956 4575 4288 4403 
L 4288 3438 
Q 3953 3666 3628 3772 
Q 3303 3878 2944 3878 
Q 2300 3878 1931 3465 
Q 1563 3053 1563 2328 
Q 1563 1606 1931 1193 
Q 2300 781 2944 781 
Q 3303 781 3628 887 
Q 3953 994 4288 1222 
L 4288 256 
z
" transform="scale(0.015625)"/>
      <path id="DejaVuSans-Bold-68" d="M 4056 2131 
L 4056 0 
L 2931 0 
L 2931 347 
L 2931 1625 
Q 2931 2084 2911 2256 
Q 2891 2428 2841 2509 
Q 2775 2619 2662 2680 
Q 2550 2741 2406 2741 
Q 2056 2741 1856 2470 
Q 1656 2200 1656 1722 
L 1656 0 
L 538 0 
L 538 4863 
L 1656 4863 
L 1656 2988 
Q 1909 3294 2193 3439 
Q 2478 3584 2822 3584 
Q 3428 3584 3742 3212 
Q 4056 2841 4056 2131 
z
" transform="scale(0.015625)"/>
      <path id="DejaVuSans-Bold-63" d="M 3366 3391 
L 3366 2478 
Q 3138 2634 2908 2709 
Q 2678 2784 2431 2784 
Q 1963 2784 1702 2511 
Q 1441 2238 1441 1747 
Q 1441 1256 1702 982 
Q 1963 709 2431 709 
Q 2694 709 2930 787 
Q 3166 866 3366 1019 
L 3366 103 
Q 3103 6 2833 -42 
Q 2563 -91 2291 -91 
Q 1344 -91 809 395 
Q 275 881 275 1747 
Q 275 2613 809 3098 
Q 1344 3584 2291 3584 
Q 2566 3584 2833 3536 
Q 3100 3488 3366 3391 
z
" transform="scale(0.015625)"/>
      <path id="DejaVuSans-Bold-6b" d="M 538 4863 
L 1656 4863 
L 1656 2216 
L 2944 3500 
L 4244 3500 
L 2534 1894 
L 4378 0 
L 3022 0 
L 1656 1459 
L 1656 0 
L 538 0 
L 538 4863 
z
" transform="scale(0.015625)"/>
      <path id="DejaVuSans-Bold-64" d="M 2919 2988 
L 2919 4863 
L 4044 4863 
L 4044 0 
L 2919 0 
L 2919 506 
Q 2688 197 2409 53 
Q 2131 -91 1766 -91 
Q 1119 -91 703 423 
Q 288 938 288 1747 
Q 288 2556 703 3070 
Q 1119 3584 1766 3584 
Q 2128 3584 2408 3439 
Q 2688 3294 2919 2988 
z
M 2181 722 
Q 2541 722 2730 984 
Q 2919 1247 2919 1747 
Q 2919 2247 2730 2509 
Q 2541 2772 2181 2772 
Q 1825 2772 1636 2509 
Q 1447 2247 1447 1747 
Q 1447 1247 1636 984 
Q 1825 722 2181 722 
z
" transform="scale(0.015625)"/>
      <path id="DejaVuSans-Bold-28" d="M 2413 -844 
L 1484 -844 
Q 1006 -72 778 623 
Q 550 1319 550 2003 
Q 550 2688 779 3389 
Q 1009 4091 1484 4856 
L 2413 4856 
Q 2013 4116 1813 3408 
Q 1613 2700 1613 2009 
Q 1613 1319 1811 609 
Q 2009 -100 2413 -844 
z
" transform="scale(0.015625)"/>
      <path id="DejaVuSans-Bold-29" d="M 513 -844 
Q 913 -100 1113 609 
Q 1313 1319 1313 2009 
Q 1313 2700 1113 3408 
Q 913 4116 513 4856 
L 1441 4856 
Q 1916 4091 2145 3389 
Q 2375 2688 2375 2003 
Q 2375 1319 2147 623 
Q 1919 -72 1441 -844 
L 513 -844 
z
" transform="scale(0.015625)"/>
     </defs>
     <use xlink:href="#DejaVuSans-Bold-42"/>
     <use xlink:href="#DejaVuSans-Bold-65" x="76.220703"/>
     <use xlink:href="#DejaVuSans-Bold-61" x="144.042969"/>
     <use xlink:href="#DejaVuSans-Bold-6d" x="211.523438"/>
     <use xlink:href="#DejaVuSans-Bold-73" x="315.722656"/>
     <use xlink:href="#DejaVuSans-Bold-20" x="375.244141"/>
     <use xlink:href="#DejaVuSans-Bold-43" x="410.058594"/>
     <use xlink:href="#DejaVuSans-Bold-68" x="483.447266"/>
     <use xlink:href="#DejaVuSans-Bold-65" x="554.638672"/>
     <use xlink:href="#DejaVuSans-Bold-63" x="622.460938"/>
     <use xlink:href="#DejaVuSans-Bold-6b" x="681.738281"/>
     <use xlink:href="#DejaVuSans-Bold-65" x="745.617188"/>
     <use xlink:href="#DejaVuSans-Bold-64" x="813.439453"/>
     <use xlink:href="#DejaVuSans-Bold-20" x="885.021484"/>
     <use xlink:href="#DejaVuSans-Bold-28" x="919.835938"/>
     <use xlink:href="#DejaVuSans-Bold-31" x="965.539062"/>
     <use xlink:href="#DejaVuSans-Bold-34" x="1035.119141"/>
     <use xlink:href="#DejaVuSans-Bold-20" x="1104.699219"/>
     <use xlink:href="#DejaVuSans-Bold-64" x="1139.513672"/>
     <use xlink:href="#DejaVuSans-Bold-42" x="1211.095703"/>
     <use xlink:href="#DejaVuSans-Bold-29" x="1287.316406"/>
    </g>
   </g>
  </g>
 </g>
 <defs>
  <clipPath id="p121139997b">
   <rect x="52.13" y="28.32" width="369.07" height="312.96"/>
  </clipPath>
 </defs>
</svg>
