<?xml version="1.0" encoding="utf-8" standalone="no"?>
<!DOCTYPE svg PUBLIC "-//W3C//DTD SVG 1.1//EN"
  "http://www.w3.org/Graphics/SVG/1.1/DTD/svg11.dtd">
<svg xmlns:xlink="http://www.w3.org/1999/xlink" width="576pt" height="432pt" viewBox="0 0 576 432" xmlns="http://www.w3.org/2000/svg" version="1.1">
 <metadata>
  <rdf:RDF xmlns:dc="http://purl.org/dc/elements/1.1/" xmlns:cc="http://creativecommons.org/ns#" xmlns:rdf="http://www.w3.org/1999/02/22-rdf-syntax-ns#">
   <cc:Work>
    <dc:type rdf:resource="http://purl.org/dc/dcmitype/StillImage"/>
    <dc:date>2025-07-14T17:56:48.157629</dc:date>
    <dc:format>image/svg+xml</dc:format>
    <dc:creator>
     <cc:Agent>
      <dc:title>Matplotlib v3.7.5, https://matplotlib.org/</dc:title>
     </cc:Agent>
    </dc:creator>
   </cc:Work>
  </rdf:RDF>
 </metadata>
 <defs>
  <style type="text/css">*{stroke-linejoin: round; stroke-linecap: butt}</style>
 </defs>
 <g id="figure_1">
  <g id="patch_1">
   <path d="M 0 432 
L 576 432 
L 576 0 
L 0 0 
z
" style="fill: #ffffff"/>
  </g>
  <g id="axes_1">
   <g id="patch_2">
    <path d="M 54.02 382.12 
L 565.2 382.12 
L 565.2 16.2 
L 54.02 16.2 
z
" style="fill: #ffffff"/>
   </g>
   <g id="matplotlib.axis_1">
    <g id="xtick_1">
     <g id="line2d_1">
      <path d="M 77.255455 382.12 
L 77.255455 16.2 
" clip-path="url(#p6df047d54d)" style="fill: none; stroke: #b0b0b0; stroke-width: 0.8; stroke-linecap: square"/>
     </g>
     <g id="line2d_2">
      <defs>
       <path id="m205a83284e" d="M 0 0 
L 0 3.5 
" style="stroke: #000000; stroke-width: 0.8"/>
      </defs>
      <g>
       <use xlink:href="#m205a83284e" x="77.255455" y="382.12" style="stroke: #000000; stroke-width: 0.8"/>
      </g>
     </g>
     <g id="text_1">
      <!-- 0 -->
      <g transform="translate(72.801705 399.757812) scale(0.14 -0.14)">
       <defs>
        <path id="DejaVuSans-30" d="M 2034 4250 
Q 1547 4250 1301 3770 
Q 1056 3291 1056 2328 
Q 1056 1369 1301 889 
Q 1547 409 2034 409 
Q 2525 409 2770 889 
Q 3016 1369 3016 2328 
Q 3016 3291 2770 3770 
Q 2525 4250 2034 4250 
z
M 2034 4750 
Q 2819 4750 3233 4129 
Q 3647 3509 3647 2328 
Q 3647 1150 3233 529 
Q 2819 -91 2034 -91 
Q 1250 -91 836 529 
Q 422 1150 422 2328 
Q 422 3509 836 4129 
Q 1250 4750 2034 4750 
z
" transform="scale(0.015625)"/>
       </defs>
       <use xlink:href="#DejaVuSans-30"/>
      </g>
     </g>
    </g>
    <g id="xtick_2">
     <g id="line2d_3">
      <path d="M 134.626947 382.12 
L 134.626947 16.2 
" clip-path="url(#p6df047d54d)" style="fill: none; stroke: #b0b0b0; stroke-width: 0.8; stroke-linecap: square"/>
     </g>
     <g id="line2d_4">
      <g>
       <use xlink:href="#m205a83284e" x="134.626947" y="382.12" style="stroke: #000000; stroke-width: 0.8"/>
      </g>
     </g>
     <g id="text_2">
      <!-- 10 -->
      <g transform="translate(125.719447 399.757812) scale(0.14 -0.14)">
       <defs>
        <path id="DejaVuSans-31" d="M 794 531 
L 1825 531 
L 1825 4091 
L 703 3866 
L 703 4441 
L 1819 4666 
L 2450 4666 
L 2450 531 
L 3481 531 
L 3481 0 
L 794 0 
L 794 531 
z
" transform="scale(0.015625)"/>
       </defs>
       <use xlink:href="#DejaVuSans-31"/>
       <use xlink:href="#DejaVuSans-30" x="63.623047"/>
      </g>
     </g>
    </g>
    <g id="xtick_3">
     <g id="line2d_5">
      <path d="M 191.99844 382.12 
L 191.99844 16.2 
" clip-path="url(#p6df047d54d)" style="fill: none; stroke: #b0b0b0; stroke-width: 0.8; stroke-linecap: square"/>
     </g>
     <g id="line2d_6">
      <g>
       <use xlink:href="#m205a83284e" x="191.99844" y="382.12" style="stroke: #000000; stroke-width: 0.8"/>
      </g>
     </g>
     <g id="text_3">
      <!-- 20 -->
      <g transform="translate(183.09094 399.757812) scale(0.14 -0.14)">
       <defs>
        <path id="DejaVuSans-32" d="M 1228 531 
L 3431 531 
L 3431 0 
L 469 0 
L 469 531 
Q 828 903 1448 1529 
Q 2069 2156 2228 2338 
Q 2531 2678 2651 2914 
Q 2772 3150 2772 3378 
Q 2772 3750 2511 3984 
Q 2250 4219 1831 4219 
Q 1534 4219 1204 4116 
Q 875 4013 500 3803 
L 500 4441 
Q 881 4594 1212 4672 
Q 1544 4750 1819 4750 
Q 2544 4750 2975 4387 
Q 3406 4025 3406 3419 
Q 3406 3131 3298 2873 
Q 3191 2616 2906 2266 
Q 2828 2175 2409 1742 
Q 1991 1309 1228 531 
z
" transform="scale(0.015625)"/>
       </defs>
       <use xlink:href="#DejaVuSans-32"/>
       <use xlink:href="#DejaVuSans-30" x="63.623047"/>
      </g>
     </g>
    </g>
    <g id="xtick_4">
     <g id="line2d_7">
      <path d="M 249.369933 382.12 
L 249.369933 16.2 
" clip-path="url(#p6df047d54d)" style="fill: none; stroke: #b0b0b0; stroke-width: 0.8; stroke-linecap: square"/>
     </g>
     <g id="line2d_8">
      <g>
       <use xlink:href="#m205a83284e" x="249.369933" y="382.12" style="stroke: #000000; stroke-width: 0.8"/>
      </g>
     </g>
     <g id="text_4">
      <!-- 30 -->
      <g transform="translate(240.462433 399.757812) scale(0.14 -0.14)">
       <defs>
        <path id="DejaVuSans-33" d="M 2597 2516 
Q 3050 2419 3304 2112 
Q 3559 1806 3559 1356 
Q 3559 666 3084 287 
Q 2609 -91 1734 -91 
Q 1441 -91 1130 -33 
Q 819 25 488 141 
L 488 750 
Q 750 597 1062 519 
Q 1375 441 1716 441 
Q 2309 441 2620 675 
Q 2931 909 2931 1356 
Q 2931 1769 2642 2001 
Q 2353 2234 1838 2234 
L 1294 2234 
L 1294 2753 
L 1863 2753 
Q 2328 2753 2575 2939 
Q 2822 3125 2822 3475 
Q 2822 3834 2567 4026 
Q 2313 4219 1838 4219 
Q 1578 4219 1281 4162 
Q 984 4106 628 3988 
L 628 4550 
Q 988 4650 1302 4700 
Q 1616 4750 1894 4750 
Q 2613 4750 3031 4423 
Q 3450 4097 3450 3541 
Q 3450 3153 3228 2886 
Q 3006 2619 2597 2516 
z
" transform="scale(0.015625)"/>
       </defs>
       <use xlink:href="#DejaVuSans-33"/>
       <use xlink:href="#DejaVuSans-30" x="63.623047"/>
      </g>
     </g>
    </g>
    <g id="xtick_5">
     <g id="line2d_9">
      <path d="M 306.741425 382.12 
L 306.741425 16.2 
" clip-path="url(#p6df047d54d)" style="fill: none; stroke: #b0b0b0; stroke-width: 0.8; stroke-linecap: square"/>
     </g>
     <g id="line2d_10">
      <g>
       <use xlink:href="#m205a83284e" x="306.741425" y="382.12" style="stroke: #000000; stroke-width: 0.8"/>
      </g>
     </g>
     <g id="text_5">
      <!-- 40 -->
      <g transform="translate(297.833925 399.757812) scale(0.14 -0.14)">
       <defs>
        <path id="DejaVuSans-34" d="M 2419 4116 
L 825 1625 
L 2419 1625 
L 2419 4116 
z
M 2253 4666 
L 3047 4666 
L 3047 1625 
L 3713 1625 
L 3713 1100 
L 3047 1100 
L 3047 0 
L 2419 0 
L 2419 1100 
L 313 1100 
L 313 1709 
L 2253 4666 
z
" transform="scale(0.015625)"/>
       </defs>
       <use xlink:href="#DejaVuSans-34"/>
       <use xlink:href="#DejaVuSans-30" x="63.623047"/>
      </g>
     </g>
    </g>
    <g id="xtick_6">
     <g id="line2d_11">
      <path d="M 364.112918 382.12 
L 364.112918 16.2 
" clip-path="url(#p6df047d54d)" style="fill: none; stroke: #b0b0b0; stroke-width: 0.8; stroke-linecap: square"/>
     </g>
     <g id="line2d_12">
      <g>
       <use xlink:href="#m205a83284e" x="364.112918" y="382.12" style="stroke: #000000; stroke-width: 0.8"/>
      </g>
     </g>
     <g id="text_6">
      <!-- 50 -->
      <g transform="translate(355.205418 399.757812) scale(0.14 -0.14)">
       <defs>
        <path id="DejaVuSans-35" d="M 691 4666 
L 3169 4666 
L 3169 4134 
L 1269 4134 
L 1269 2991 
Q 1406 3038 1543 3061 
Q 1681 3084 1819 3084 
Q 2600 3084 3056 2656 
Q 3513 2228 3513 1497 
Q 3513 744 3044 326 
Q 2575 -91 1722 -91 
Q 1428 -91 1123 -41 
Q 819 9 494 109 
L 494 744 
Q 775 591 1075 516 
Q 1375 441 1709 441 
Q 2250 441 2565 725 
Q 2881 1009 2881 1497 
Q 2881 1984 2565 2268 
Q 2250 2553 1709 2553 
Q 1456 2553 1204 2497 
Q 953 2441 691 2322 
L 691 4666 
z
" transform="scale(0.015625)"/>
       </defs>
       <use xlink:href="#DejaVuSans-35"/>
       <use xlink:href="#DejaVuSans-30" x="63.623047"/>
      </g>
     </g>
    </g>
    <g id="xtick_7">
     <g id="line2d_13">
      <path d="M 421.484411 382.12 
L 421.484411 16.2 
" clip-path="url(#p6df047d54d)" style="fill: none; stroke: #b0b0b0; stroke-width: 0.8; stroke-linecap: square"/>
     </g>
     <g id="line2d_14">
      <g>
       <use xlink:href="#m205a83284e" x="421.484411" y="382.12" style="stroke: #000000; stroke-width: 0.8"/>
      </g>
     </g>
     <g id="text_7">
      <!-- 60 -->
      <g transform="translate(412.576911 399.757812) scale(0.14 -0.14)">
       <defs>
        <path id="DejaVuSans-36" d="M 2113 2584 
Q 1688 2584 1439 2293 
Q 1191 2003 1191 1497 
Q 1191 994 1439 701 
Q 1688 409 2113 409 
Q 2538 409 2786 701 
Q 3034 994 3034 1497 
Q 3034 2003 2786 2293 
Q 2538 2584 2113 2584 
z
M 3366 4563 
L 3366 3988 
Q 3128 4100 2886 4159 
Q 2644 4219 2406 4219 
Q 1781 4219 1451 3797 
Q 1122 3375 1075 2522 
Q 1259 2794 1537 2939 
Q 1816 3084 2150 3084 
Q 2853 3084 3261 2657 
Q 3669 2231 3669 1497 
Q 3669 778 3244 343 
Q 2819 -91 2113 -91 
Q 1303 -91 875 529 
Q 447 1150 447 2328 
Q 447 3434 972 4092 
Q 1497 4750 2381 4750 
Q 2619 4750 2861 4703 
Q 3103 4656 3366 4563 
z
" transform="scale(0.015625)"/>
       </defs>
       <use xlink:href="#DejaVuSans-36"/>
       <use xlink:href="#DejaVuSans-30" x="63.623047"/>
      </g>
     </g>
    </g>
    <g id="xtick_8">
     <g id="line2d_15">
      <path d="M 478.855903 382.12 
L 478.855903 16.2 
" clip-path="url(#p6df047d54d)" style="fill: none; stroke: #b0b0b0; stroke-width: 0.8; stroke-linecap: square"/>
     </g>
     <g id="line2d_16">
      <g>
       <use xlink:href="#m205a83284e" x="478.855903" y="382.12" style="stroke: #000000; stroke-width: 0.8"/>
      </g>
     </g>
     <g id="text_8">
      <!-- 70 -->
      <g transform="translate(469.948403 399.757812) scale(0.14 -0.14)">
       <defs>
        <path id="DejaVuSans-37" d="M 525 4666 
L 3525 4666 
L 3525 4397 
L 1831 0 
L 1172 0 
L 2766 4134 
L 525 4134 
L 525 4666 
z
" transform="scale(0.015625)"/>
       </defs>
       <use xlink:href="#DejaVuSans-37"/>
       <use xlink:href="#DejaVuSans-30" x="63.623047"/>
      </g>
     </g>
    </g>
    <g id="xtick_9">
     <g id="line2d_17">
      <path d="M 536.227396 382.12 
L 536.227396 16.2 
" clip-path="url(#p6df047d54d)" style="fill: none; stroke: #b0b0b0; stroke-width: 0.8; stroke-linecap: square"/>
     </g>
     <g id="line2d_18">
      <g>
       <use xlink:href="#m205a83284e" x="536.227396" y="382.12" style="stroke: #000000; stroke-width: 0.8"/>
      </g>
     </g>
     <g id="text_9">
      <!-- 80 -->
      <g transform="translate(527.319896 399.757812) scale(0.14 -0.14)">
       <defs>
        <path id="DejaVuSans-38" d="M 2034 2216 
Q 1584 2216 1326 1975 
Q 1069 1734 1069 1313 
Q 1069 891 1326 650 
Q 1584 409 2034 409 
Q 2484 409 2743 651 
Q 3003 894 3003 1313 
Q 3003 1734 2745 1975 
Q 2488 2216 2034 2216 
z
M 1403 2484 
Q 997 2584 770 2862 
Q 544 3141 544 3541 
Q 544 4100 942 4425 
Q 1341 4750 2034 4750 
Q 2731 4750 3128 4425 
Q 3525 4100 3525 3541 
Q 3525 3141 3298 2862 
Q 3072 2584 2669 2484 
Q 3125 2378 3379 2068 
Q 3634 1759 3634 1313 
Q 3634 634 3220 271 
Q 2806 -91 2034 -91 
Q 1263 -91 848 271 
Q 434 634 434 1313 
Q 434 1759 690 2068 
Q 947 2378 1403 2484 
z
M 1172 3481 
Q 1172 3119 1398 2916 
Q 1625 2713 2034 2713 
Q 2441 2713 2670 2916 
Q 2900 3119 2900 3481 
Q 2900 3844 2670 4047 
Q 2441 4250 2034 4250 
Q 1625 4250 1398 4047 
Q 1172 3844 1172 3481 
z
" transform="scale(0.015625)"/>
       </defs>
       <use xlink:href="#DejaVuSans-38"/>
       <use xlink:href="#DejaVuSans-30" x="63.623047"/>
      </g>
     </g>
    </g>
    <g id="text_10">
     <!-- Index -->
     <g transform="translate(284.62625 418.826875) scale(0.16 -0.16)">
      <defs>
       <path id="DejaVuSans-Bold-49" d="M 588 4666 
L 1791 4666 
L 1791 0 
L 588 0 
L 588 4666 
z
" transform="scale(0.015625)"/>
       <path id="DejaVuSans-Bold-6e" d="M 4056 2131 
L 4056 0 
L 2931 0 
L 2931 347 
L 2931 1631 
Q 2931 2084 2911 2256 
Q 2891 2428 2841 2509 
Q 2775 2619 2662 2680 
Q 2550 2741 2406 2741 
Q 2056 2741 1856 2470 
Q 1656 2200 1656 1722 
L 1656 0 
L 538 0 
L 538 3500 
L 1656 3500 
L 1656 2988 
Q 1909 3294 2193 3439 
Q 2478 3584 2822 3584 
Q 3428 3584 3742 3212 
Q 4056 2841 4056 2131 
z
" transform="scale(0.015625)"/>
       <path id="DejaVuSans-Bold-64" d="M 2919 2988 
L 2919 4863 
L 4044 4863 
L 4044 0 
L 2919 0 
L 2919 506 
Q 2688 197 2409 53 
Q 2131 -91 1766 -91 
Q 1119 -91 703 423 
Q 288 938 288 1747 
Q 288 2556 703 3070 
Q 1119 3584 1766 3584 
Q 2128 3584 2408 3439 
Q 2688 3294 2919 2988 
z
M 2181 722 
Q 2541 722 2730 984 
Q 2919 1247 2919 1747 
Q 2919 2247 2730 2509 
Q 2541 2772 2181 2772 
Q 1825 2772 1636 2509 
Q 1447 2247 1447 1747 
Q 1447 1247 1636 984 
Q 1825 722 2181 722 
z
" transform="scale(0.015625)"/>
       <path id="DejaVuSans-Bold-65" d="M 4031 1759 
L 4031 1441 
L 1416 1441 
Q 1456 1047 1700 850 
Q 1944 653 2381 653 
Q 2734 653 3104 758 
Q 3475 863 3866 1075 
L 3866 213 
Q 3469 63 3072 -14 
Q 2675 -91 2278 -91 
Q 1328 -91 801 392 
Q 275 875 275 1747 
Q 275 2603 792 3093 
Q 1309 3584 2216 3584 
Q 3041 3584 3536 3087 
Q 4031 2591 4031 1759 
z
M 2881 2131 
Q 2881 2450 2695 2645 
Q 2509 2841 2209 2841 
Q 1884 2841 1681 2658 
Q 1478 2475 1428 2131 
L 2881 2131 
z
" transform="scale(0.015625)"/>
       <path id="DejaVuSans-Bold-78" d="M 1422 1791 
L 159 3500 
L 1344 3500 
L 2059 2463 
L 2784 3500 
L 3969 3500 
L 2706 1797 
L 4031 0 
L 2847 0 
L 2059 1106 
L 1281 0 
L 97 0 
L 1422 1791 
z
" transform="scale(0.015625)"/>
      </defs>
      <use xlink:href="#DejaVuSans-Bold-49"/>
      <use xlink:href="#DejaVuSans-Bold-6e" x="37.207031"/>
      <use xlink:href="#DejaVuSans-Bold-64" x="108.398438"/>
      <use xlink:href="#DejaVuSans-Bold-65" x="179.980469"/>
      <use xlink:href="#DejaVuSans-Bold-78" x="247.802734"/>
     </g>
    </g>
   </g>
   <g id="matplotlib.axis_2">
    <g id="ytick_1">
     <g id="line2d_19">
      <path d="M 54.02 382.12 
L 565.2 382.12 
" clip-path="url(#p6df047d54d)" style="fill: none; stroke: #b0b0b0; stroke-width: 0.8; stroke-linecap: square"/>
     </g>
     <g id="line2d_20">
      <defs>
       <path id="ma16ab22a49" d="M 0 0 
L -3.5 0 
" style="stroke: #000000; stroke-width: 0.8"/>
      </defs>
      <g>
       <use xlink:href="#ma16ab22a49" x="54.02" y="382.12" style="stroke: #000000; stroke-width: 0.8"/>
      </g>
     </g>
     <g id="text_11">
      <!-- 0 -->
      <g transform="translate(38.1125 387.438906) scale(0.14 -0.14)">
       <use xlink:href="#DejaVuSans-30"/>
      </g>
     </g>
    </g>
    <g id="ytick_2">
     <g id="line2d_21">
      <path d="M 54.02 345.528 
L 565.2 345.528 
" clip-path="url(#p6df047d54d)" style="fill: none; stroke: #b0b0b0; stroke-width: 0.8; stroke-linecap: square"/>
     </g>
     <g id="line2d_22">
      <g>
       <use xlink:href="#ma16ab22a49" x="54.02" y="345.528" style="stroke: #000000; stroke-width: 0.8"/>
      </g>
     </g>
     <g id="text_12">
      <!-- 4 -->
      <g transform="translate(38.1125 350.846906) scale(0.14 -0.14)">
       <use xlink:href="#DejaVuSans-34"/>
      </g>
     </g>
    </g>
    <g id="ytick_3">
     <g id="line2d_23">
      <path d="M 54.02 308.936 
L 565.2 308.936 
" clip-path="url(#p6df047d54d)" style="fill: none; stroke: #b0b0b0; stroke-width: 0.8; stroke-linecap: square"/>
     </g>
     <g id="line2d_24">
      <g>
       <use xlink:href="#ma16ab22a49" x="54.02" y="308.936" style="stroke: #000000; stroke-width: 0.8"/>
      </g>
     </g>
     <g id="text_13">
      <!-- 8 -->
      <g transform="translate(38.1125 314.254906) scale(0.14 -0.14)">
       <use xlink:href="#DejaVuSans-38"/>
      </g>
     </g>
    </g>
    <g id="ytick_4">
     <g id="line2d_25">
      <path d="M 54.02 272.344 
L 565.2 272.344 
" clip-path="url(#p6df047d54d)" style="fill: none; stroke: #b0b0b0; stroke-width: 0.8; stroke-linecap: square"/>
     </g>
     <g id="line2d_26">
      <g>
       <use xlink:href="#ma16ab22a49" x="54.02" y="272.344" style="stroke: #000000; stroke-width: 0.8"/>
      </g>
     </g>
     <g id="text_14">
      <!-- 12 -->
      <g transform="translate(29.205 277.662906) scale(0.14 -0.14)">
       <use xlink:href="#DejaVuSans-31"/>
       <use xlink:href="#DejaVuSans-32" x="63.623047"/>
      </g>
     </g>
    </g>
    <g id="ytick_5">
     <g id="line2d_27">
      <path d="M 54.02 235.752 
L 565.2 235.752 
" clip-path="url(#p6df047d54d)" style="fill: none; stroke: #b0b0b0; stroke-width: 0.8; stroke-linecap: square"/>
     </g>
     <g id="line2d_28">
      <g>
       <use xlink:href="#ma16ab22a49" x="54.02" y="235.752" style="stroke: #000000; stroke-width: 0.8"/>
      </g>
     </g>
     <g id="text_15">
      <!-- 16 -->
      <g transform="translate(29.205 241.070906) scale(0.14 -0.14)">
       <use xlink:href="#DejaVuSans-31"/>
       <use xlink:href="#DejaVuSans-36" x="63.623047"/>
      </g>
     </g>
    </g>
    <g id="ytick_6">
     <g id="line2d_29">
      <path d="M 54.02 199.16 
L 565.2 199.16 
" clip-path="url(#p6df047d54d)" style="fill: none; stroke: #b0b0b0; stroke-width: 0.8; stroke-linecap: square"/>
     </g>
     <g id="line2d_30">
      <g>
       <use xlink:href="#ma16ab22a49" x="54.02" y="199.16" style="stroke: #000000; stroke-width: 0.8"/>
      </g>
     </g>
     <g id="text_16">
      <!-- 20 -->
      <g transform="translate(29.205 204.478906) scale(0.14 -0.14)">
       <use xlink:href="#DejaVuSans-32"/>
       <use xlink:href="#DejaVuSans-30" x="63.623047"/>
      </g>
     </g>
    </g>
    <g id="ytick_7">
     <g id="line2d_31">
      <path d="M 54.02 162.568 
L 565.2 162.568 
" clip-path="url(#p6df047d54d)" style="fill: none; stroke: #b0b0b0; stroke-width: 0.8; stroke-linecap: square"/>
     </g>
     <g id="line2d_32">
      <g>
       <use xlink:href="#ma16ab22a49" x="54.02" y="162.568" style="stroke: #000000; stroke-width: 0.8"/>
      </g>
     </g>
     <g id="text_17">
      <!-- 24 -->
      <g transform="translate(29.205 167.886906) scale(0.14 -0.14)">
       <use xlink:href="#DejaVuSans-32"/>
       <use xlink:href="#DejaVuSans-34" x="63.623047"/>
      </g>
     </g>
    </g>
    <g id="ytick_8">
     <g id="line2d_33">
      <path d="M 54.02 125.976 
L 565.2 125.976 
" clip-path="url(#p6df047d54d)" style="fill: none; stroke: #b0b0b0; stroke-width: 0.8; stroke-linecap: square"/>
     </g>
     <g id="line2d_34">
      <g>
       <use xlink:href="#ma16ab22a49" x="54.02" y="125.976" style="stroke: #000000; stroke-width: 0.8"/>
      </g>
     </g>
     <g id="text_18">
      <!-- 28 -->
      <g transform="translate(29.205 131.294906) scale(0.14 -0.14)">
       <use xlink:href="#DejaVuSans-32"/>
       <use xlink:href="#DejaVuSans-38" x="63.623047"/>
      </g>
     </g>
    </g>
    <g id="ytick_9">
     <g id="line2d_35">
      <path d="M 54.02 89.384 
L 565.2 89.384 
" clip-path="url(#p6df047d54d)" style="fill: none; stroke: #b0b0b0; stroke-width: 0.8; stroke-linecap: square"/>
     </g>
     <g id="line2d_36">
      <g>
       <use xlink:href="#ma16ab22a49" x="54.02" y="89.384" style="stroke: #000000; stroke-width: 0.8"/>
      </g>
     </g>
     <g id="text_19">
      <!-- 32 -->
      <g transform="translate(29.205 94.702906) scale(0.14 -0.14)">
       <use xlink:href="#DejaVuSans-33"/>
       <use xlink:href="#DejaVuSans-32" x="63.623047"/>
      </g>
     </g>
    </g>
    <g id="ytick_10">
     <g id="line2d_37">
      <path d="M 54.02 52.792 
L 565.2 52.792 
" clip-path="url(#p6df047d54d)" style="fill: none; stroke: #b0b0b0; stroke-width: 0.8; stroke-linecap: square"/>
     </g>
     <g id="line2d_38">
      <g>
       <use xlink:href="#ma16ab22a49" x="54.02" y="52.792" style="stroke: #000000; stroke-width: 0.8"/>
      </g>
     </g>
     <g id="text_20">
      <!-- 36 -->
      <g transform="translate(29.205 58.110906) scale(0.14 -0.14)">
       <use xlink:href="#DejaVuSans-33"/>
       <use xlink:href="#DejaVuSans-36" x="63.623047"/>
      </g>
     </g>
    </g>
    <g id="ytick_11">
     <g id="line2d_39">
      <path d="M 54.02 16.2 
L 565.2 16.2 
" clip-path="url(#p6df047d54d)" style="fill: none; stroke: #b0b0b0; stroke-width: 0.8; stroke-linecap: square"/>
     </g>
     <g id="line2d_40">
      <g>
       <use xlink:href="#ma16ab22a49" x="54.02" y="16.2" style="stroke: #000000; stroke-width: 0.8"/>
      </g>
     </g>
     <g id="text_21">
      <!-- 40 -->
      <g transform="translate(29.205 21.518906) scale(0.14 -0.14)">
       <use xlink:href="#DejaVuSans-34"/>
       <use xlink:href="#DejaVuSans-30" x="63.623047"/>
      </g>
     </g>
    </g>
    <g id="text_22">
     <!-- SNR (dB) -->
     <g transform="translate(21.8775 239.6975) rotate(-90) scale(0.16 -0.16)">
      <defs>
       <path id="DejaVuSans-Bold-53" d="M 3834 4519 
L 3834 3531 
Q 3450 3703 3084 3790 
Q 2719 3878 2394 3878 
Q 1963 3878 1756 3759 
Q 1550 3641 1550 3391 
Q 1550 3203 1689 3098 
Q 1828 2994 2194 2919 
L 2706 2816 
Q 3484 2659 3812 2340 
Q 4141 2022 4141 1434 
Q 4141 663 3683 286 
Q 3225 -91 2284 -91 
Q 1841 -91 1394 -6 
Q 947 78 500 244 
L 500 1259 
Q 947 1022 1364 901 
Q 1781 781 2169 781 
Q 2563 781 2772 912 
Q 2981 1044 2981 1288 
Q 2981 1506 2839 1625 
Q 2697 1744 2272 1838 
L 1806 1941 
Q 1106 2091 782 2419 
Q 459 2747 459 3303 
Q 459 4000 909 4375 
Q 1359 4750 2203 4750 
Q 2588 4750 2994 4692 
Q 3400 4634 3834 4519 
z
" transform="scale(0.015625)"/>
       <path id="DejaVuSans-Bold-4e" d="M 588 4666 
L 1931 4666 
L 3628 1466 
L 3628 4666 
L 4769 4666 
L 4769 0 
L 3425 0 
L 1728 3200 
L 1728 0 
L 588 0 
L 588 4666 
z
" transform="scale(0.015625)"/>
       <path id="DejaVuSans-Bold-52" d="M 2297 2597 
Q 2675 2597 2839 2737 
Q 3003 2878 3003 3200 
Q 3003 3519 2839 3656 
Q 2675 3794 2297 3794 
L 1791 3794 
L 1791 2597 
L 2297 2597 
z
M 1791 1766 
L 1791 0 
L 588 0 
L 588 4666 
L 2425 4666 
Q 3347 4666 3776 4356 
Q 4206 4047 4206 3378 
Q 4206 2916 3982 2619 
Q 3759 2322 3309 2181 
Q 3556 2125 3751 1926 
Q 3947 1728 4147 1325 
L 4800 0 
L 3519 0 
L 2950 1159 
Q 2778 1509 2601 1637 
Q 2425 1766 2131 1766 
L 1791 1766 
z
" transform="scale(0.015625)"/>
       <path id="DejaVuSans-Bold-20" transform="scale(0.015625)"/>
       <path id="DejaVuSans-Bold-28" d="M 2413 -844 
L 1484 -844 
Q 1006 -72 778 623 
Q 550 1319 550 2003 
Q 550 2688 779 3389 
Q 1009 4091 1484 4856 
L 2413 4856 
Q 2013 4116 1813 3408 
Q 1613 2700 1613 2009 
Q 1613 1319 1811 609 
Q 2009 -100 2413 -844 
z
" transform="scale(0.015625)"/>
       <path id="DejaVuSans-Bold-42" d="M 2456 2859 
Q 2741 2859 2887 2984 
Q 3034 3109 3034 3353 
Q 3034 3594 2887 3720 
Q 2741 3847 2456 3847 
L 1791 3847 
L 1791 2859 
L 2456 2859 
z
M 2497 819 
Q 2859 819 3042 972 
Q 3225 1125 3225 1434 
Q 3225 1738 3044 1889 
Q 2863 2041 2497 2041 
L 1791 2041 
L 1791 819 
L 2497 819 
z
M 3616 2497 
Q 4003 2384 4215 2081 
Q 4428 1778 4428 1338 
Q 4428 663 3972 331 
Q 3516 0 2584 0 
L 588 0 
L 588 4666 
L 2394 4666 
Q 3366 4666 3802 4372 
Q 4238 4078 4238 3431 
Q 4238 3091 4078 2852 
Q 3919 2613 3616 2497 
z
" transform="scale(0.015625)"/>
       <path id="DejaVuSans-Bold-29" d="M 513 -844 
Q 913 -100 1113 609 
Q 1313 1319 1313 2009 
Q 1313 2700 1113 3408 
Q 913 4116 513 4856 
L 1441 4856 
Q 1916 4091 2145 3389 
Q 2375 2688 2375 2003 
Q 2375 1319 2147 623 
Q 1919 -72 1441 -844 
L 513 -844 
z
" transform="scale(0.015625)"/>
      </defs>
      <use xlink:href="#DejaVuSans-Bold-53"/>
      <use xlink:href="#DejaVuSans-Bold-4e" x="72.021484"/>
      <use xlink:href="#DejaVuSans-Bold-52" x="155.712891"/>
      <use xlink:href="#DejaVuSans-Bold-20" x="232.714844"/>
      <use xlink:href="#DejaVuSans-Bold-28" x="267.529297"/>
      <use xlink:href="#DejaVuSans-Bold-64" x="313.232422"/>
      <use xlink:href="#DejaVuSans-Bold-42" x="384.814453"/>
      <use xlink:href="#DejaVuSans-Bold-29" x="461.035156"/>
     </g>
    </g>
   </g>
   <g id="line2d_41">
    <path d="M 77.255455 196.179035 
L 82.992604 195.966872 
L 88.729753 172.405254 
L 94.466902 169.990404 
L 100.204052 168.635284 
L 105.941201 156.918262 
L 111.67835 154.037663 
L 117.415499 164.596903 
L 123.152649 164.957019 
L 128.889798 160.137865 
L 134.626947 159.132003 
L 140.364097 153.777944 
L 146.101246 152.475159 
L 151.838395 162.629188 
L 157.575544 163.318891 
L 163.312694 160.695696 
L 169.049843 159.017392 
L 174.786992 161.698205 
L 180.524141 162.480233 
L 186.261291 165.354897 
L 191.99844 164.58481 
L 197.735589 157.123408 
L 203.472738 157.117645 
L 209.209888 160.201896 
L 214.947037 160.810926 
L 220.684186 152.018738 
L 226.421336 151.728341 
L 232.158485 151.112285 
L 237.895634 152.338263 
L 243.632783 156.748029 
L 249.369933 156.329816 
L 255.107082 153.618649 
L 260.844231 155.979593 
L 266.58138 148.791767 
L 272.31853 148.824758 
L 278.055679 150.819234 
L 283.792828 150.153831 
L 289.529978 156.051628 
L 295.267127 154.753177 
L 301.004276 167.051776 
L 306.741425 167.158668 
L 312.478575 168.361539 
L 318.215724 168.259257 
L 323.952873 155.495927 
L 329.690022 155.4153 
L 335.427172 152.432613 
L 341.164321 153.553291 
L 346.90147 142.648201 
L 352.63862 143.558383 
L 358.375769 144.3872 
L 364.112918 144.308789 
L 369.850067 166.32122 
L 375.587217 168.115661 
L 381.324366 188.611404 
L 387.061515 193.527965 
L 392.798664 158.566186 
L 398.535814 163.380355 
L 404.272963 189.676419 
L 410.010112 194.861928 
L 415.747262 184.974165 
L 421.484411 188.192365 
L 427.22156 180.991088 
L 432.958709 186.611331 
L 438.695859 171.492993 
L 444.433008 176.753406 
L 450.170157 174.731246 
L 455.907306 175.230734 
L 461.644456 184.740791 
L 467.381605 188.380079 
L 473.118754 155.470317 
L 478.855903 157.154833 
L 484.593053 179.64062 
L 490.330202 183.647623 
L 496.067351 175.265085 
L 501.804501 176.836991 
L 507.54165 195.40074 
L 513.278799 197.140742 
L 519.015948 184.784608 
L 524.753098 188.174381 
L 530.490247 186.084839 
L 536.227396 186.627259 
L 541.964545 181.9597 
" clip-path="url(#p6df047d54d)" style="fill: none; stroke: #cc9966; stroke-width: 3; stroke-linecap: square"/>
    <defs>
     <path id="mbcc6dec793" d="M 0 3 
C 0.795609 3 1.55874 2.683901 2.12132 2.12132 
C 2.683901 1.55874 3 0.795609 3 0 
C 3 -0.795609 2.683901 -1.55874 2.12132 -2.12132 
C 1.55874 -2.683901 0.795609 -3 0 -3 
C -0.795609 -3 -1.55874 -2.683901 -2.12132 -2.12132 
C -2.683901 -1.55874 -3 -0.795609 -3 0 
C -3 0.795609 -2.683901 1.55874 -2.12132 2.12132 
C -1.55874 2.683901 -0.795609 3 0 3 
z
" style="stroke: #cc9966"/>
    </defs>
    <g clip-path="url(#p6df047d54d)">
     <use xlink:href="#mbcc6dec793" x="77.255455" y="196.179035" style="fill: #cc9966; stroke: #cc9966"/>
     <use xlink:href="#mbcc6dec793" x="82.992604" y="195.966872" style="fill: #cc9966; stroke: #cc9966"/>
     <use xlink:href="#mbcc6dec793" x="88.729753" y="172.405254" style="fill: #cc9966; stroke: #cc9966"/>
     <use xlink:href="#mbcc6dec793" x="94.466902" y="169.990404" style="fill: #cc9966; stroke: #cc9966"/>
     <use xlink:href="#mbcc6dec793" x="100.204052" y="168.635284" style="fill: #cc9966; stroke: #cc9966"/>
     <use xlink:href="#mbcc6dec793" x="105.941201" y="156.918262" style="fill: #cc9966; stroke: #cc9966"/>
     <use xlink:href="#mbcc6dec793" x="111.67835" y="154.037663" style="fill: #cc9966; stroke: #cc9966"/>
     <use xlink:href="#mbcc6dec793" x="117.415499" y="164.596903" style="fill: #cc9966; stroke: #cc9966"/>
     <use xlink:href="#mbcc6dec793" x="123.152649" y="164.957019" style="fill: #cc9966; stroke: #cc9966"/>
     <use xlink:href="#mbcc6dec793" x="128.889798" y="160.137865" style="fill: #cc9966; stroke: #cc9966"/>
     <use xlink:href="#mbcc6dec793" x="134.626947" y="159.132003" style="fill: #cc9966; stroke: #cc9966"/>
     <use xlink:href="#mbcc6dec793" x="140.364097" y="153.777944" style="fill: #cc9966; stroke: #cc9966"/>
     <use xlink:href="#mbcc6dec793" x="146.101246" y="152.475159" style="fill: #cc9966; stroke: #cc9966"/>
     <use xlink:href="#mbcc6dec793" x="151.838395" y="162.629188" style="fill: #cc9966; stroke: #cc9966"/>
     <use xlink:href="#mbcc6dec793" x="157.575544" y="163.318891" style="fill: #cc9966; stroke: #cc9966"/>
     <use xlink:href="#mbcc6dec793" x="163.312694" y="160.695696" style="fill: #cc9966; stroke: #cc9966"/>
     <use xlink:href="#mbcc6dec793" x="169.049843" y="159.017392" style="fill: #cc9966; stroke: #cc9966"/>
     <use xlink:href="#mbcc6dec793" x="174.786992" y="161.698205" style="fill: #cc9966; stroke: #cc9966"/>
     <use xlink:href="#mbcc6dec793" x="180.524141" y="162.480233" style="fill: #cc9966; stroke: #cc9966"/>
     <use xlink:href="#mbcc6dec793" x="186.261291" y="165.354897" style="fill: #cc9966; stroke: #cc9966"/>
     <use xlink:href="#mbcc6dec793" x="191.99844" y="164.58481" style="fill: #cc9966; stroke: #cc9966"/>
     <use xlink:href="#mbcc6dec793" x="197.735589" y="157.123408" style="fill: #cc9966; stroke: #cc9966"/>
     <use xlink:href="#mbcc6dec793" x="203.472738" y="157.117645" style="fill: #cc9966; stroke: #cc9966"/>
     <use xlink:href="#mbcc6dec793" x="209.209888" y="160.201896" style="fill: #cc9966; stroke: #cc9966"/>
     <use xlink:href="#mbcc6dec793" x="214.947037" y="160.810926" style="fill: #cc9966; stroke: #cc9966"/>
     <use xlink:href="#mbcc6dec793" x="220.684186" y="152.018738" style="fill: #cc9966; stroke: #cc9966"/>
     <use xlink:href="#mbcc6dec793" x="226.421336" y="151.728341" style="fill: #cc9966; stroke: #cc9966"/>
     <use xlink:href="#mbcc6dec793" x="232.158485" y="151.112285" style="fill: #cc9966; stroke: #cc9966"/>
     <use xlink:href="#mbcc6dec793" x="237.895634" y="152.338263" style="fill: #cc9966; stroke: #cc9966"/>
     <use xlink:href="#mbcc6dec793" x="243.632783" y="156.748029" style="fill: #cc9966; stroke: #cc9966"/>
     <use xlink:href="#mbcc6dec793" x="249.369933" y="156.329816" style="fill: #cc9966; stroke: #cc9966"/>
     <use xlink:href="#mbcc6dec793" x="255.107082" y="153.618649" style="fill: #cc9966; stroke: #cc9966"/>
     <use xlink:href="#mbcc6dec793" x="260.844231" y="155.979593" style="fill: #cc9966; stroke: #cc9966"/>
     <use xlink:href="#mbcc6dec793" x="266.58138" y="148.791767" style="fill: #cc9966; stroke: #cc9966"/>
     <use xlink:href="#mbcc6dec793" x="272.31853" y="148.824758" style="fill: #cc9966; stroke: #cc9966"/>
     <use xlink:href="#mbcc6dec793" x="278.055679" y="150.819234" style="fill: #cc9966; stroke: #cc9966"/>
     <use xlink:href="#mbcc6dec793" x="283.792828" y="150.153831" style="fill: #cc9966; stroke: #cc9966"/>
     <use xlink:href="#mbcc6dec793" x="289.529978" y="156.051628" style="fill: #cc9966; stroke: #cc9966"/>
     <use xlink:href="#mbcc6dec793" x="295.267127" y="154.753177" style="fill: #cc9966; stroke: #cc9966"/>
     <use xlink:href="#mbcc6dec793" x="301.004276" y="167.051776" style="fill: #cc9966; stroke: #cc9966"/>
     <use xlink:href="#mbcc6dec793" x="306.741425" y="167.158668" style="fill: #cc9966; stroke: #cc9966"/>
     <use xlink:href="#mbcc6dec793" x="312.478575" y="168.361539" style="fill: #cc9966; stroke: #cc9966"/>
     <use xlink:href="#mbcc6dec793" x="318.215724" y="168.259257" style="fill: #cc9966; stroke: #cc9966"/>
     <use xlink:href="#mbcc6dec793" x="323.952873" y="155.495927" style="fill: #cc9966; stroke: #cc9966"/>
     <use xlink:href="#mbcc6dec793" x="329.690022" y="155.4153" style="fill: #cc9966; stroke: #cc9966"/>
     <use xlink:href="#mbcc6dec793" x="335.427172" y="152.432613" style="fill: #cc9966; stroke: #cc9966"/>
     <use xlink:href="#mbcc6dec793" x="341.164321" y="153.553291" style="fill: #cc9966; stroke: #cc9966"/>
     <use xlink:href="#mbcc6dec793" x="346.90147" y="142.648201" style="fill: #cc9966; stroke: #cc9966"/>
     <use xlink:href="#mbcc6dec793" x="352.63862" y="143.558383" style="fill: #cc9966; stroke: #cc9966"/>
     <use xlink:href="#mbcc6dec793" x="358.375769" y="144.3872" style="fill: #cc9966; stroke: #cc9966"/>
     <use xlink:href="#mbcc6dec793" x="364.112918" y="144.308789" style="fill: #cc9966; stroke: #cc9966"/>
     <use xlink:href="#mbcc6dec793" x="369.850067" y="166.32122" style="fill: #cc9966; stroke: #cc9966"/>
     <use xlink:href="#mbcc6dec793" x="375.587217" y="168.115661" style="fill: #cc9966; stroke: #cc9966"/>
     <use xlink:href="#mbcc6dec793" x="381.324366" y="188.611404" style="fill: #cc9966; stroke: #cc9966"/>
     <use xlink:href="#mbcc6dec793" x="387.061515" y="193.527965" style="fill: #cc9966; stroke: #cc9966"/>
     <use xlink:href="#mbcc6dec793" x="392.798664" y="158.566186" style="fill: #cc9966; stroke: #cc9966"/>
     <use xlink:href="#mbcc6dec793" x="398.535814" y="163.380355" style="fill: #cc9966; stroke: #cc9966"/>
     <use xlink:href="#mbcc6dec793" x="404.272963" y="189.676419" style="fill: #cc9966; stroke: #cc9966"/>
     <use xlink:href="#mbcc6dec793" x="410.010112" y="194.861928" style="fill: #cc9966; stroke: #cc9966"/>
     <use xlink:href="#mbcc6dec793" x="415.747262" y="184.974165" style="fill: #cc9966; stroke: #cc9966"/>
     <use xlink:href="#mbcc6dec793" x="421.484411" y="188.192365" style="fill: #cc9966; stroke: #cc9966"/>
     <use xlink:href="#mbcc6dec793" x="427.22156" y="180.991088" style="fill: #cc9966; stroke: #cc9966"/>
     <use xlink:href="#mbcc6dec793" x="432.958709" y="186.611331" style="fill: #cc9966; stroke: #cc9966"/>
     <use xlink:href="#mbcc6dec793" x="438.695859" y="171.492993" style="fill: #cc9966; stroke: #cc9966"/>
     <use xlink:href="#mbcc6dec793" x="444.433008" y="176.753406" style="fill: #cc9966; stroke: #cc9966"/>
     <use xlink:href="#mbcc6dec793" x="450.170157" y="174.731246" style="fill: #cc9966; stroke: #cc9966"/>
     <use xlink:href="#mbcc6dec793" x="455.907306" y="175.230734" style="fill: #cc9966; stroke: #cc9966"/>
     <use xlink:href="#mbcc6dec793" x="461.644456" y="184.740791" style="fill: #cc9966; stroke: #cc9966"/>
     <use xlink:href="#mbcc6dec793" x="467.381605" y="188.380079" style="fill: #cc9966; stroke: #cc9966"/>
     <use xlink:href="#mbcc6dec793" x="473.118754" y="155.470317" style="fill: #cc9966; stroke: #cc9966"/>
     <use xlink:href="#mbcc6dec793" x="478.855903" y="157.154833" style="fill: #cc9966; stroke: #cc9966"/>
     <use xlink:href="#mbcc6dec793" x="484.593053" y="179.64062" style="fill: #cc9966; stroke: #cc9966"/>
     <use xlink:href="#mbcc6dec793" x="490.330202" y="183.647623" style="fill: #cc9966; stroke: #cc9966"/>
     <use xlink:href="#mbcc6dec793" x="496.067351" y="175.265085" style="fill: #cc9966; stroke: #cc9966"/>
     <use xlink:href="#mbcc6dec793" x="501.804501" y="176.836991" style="fill: #cc9966; stroke: #cc9966"/>
     <use xlink:href="#mbcc6dec793" x="507.54165" y="195.40074" style="fill: #cc9966; stroke: #cc9966"/>
     <use xlink:href="#mbcc6dec793" x="513.278799" y="197.140742" style="fill: #cc9966; stroke: #cc9966"/>
     <use xlink:href="#mbcc6dec793" x="519.015948" y="184.784608" style="fill: #cc9966; stroke: #cc9966"/>
     <use xlink:href="#mbcc6dec793" x="524.753098" y="188.174381" style="fill: #cc9966; stroke: #cc9966"/>
     <use xlink:href="#mbcc6dec793" x="530.490247" y="186.084839" style="fill: #cc9966; stroke: #cc9966"/>
     <use xlink:href="#mbcc6dec793" x="536.227396" y="186.627259" style="fill: #cc9966; stroke: #cc9966"/>
     <use xlink:href="#mbcc6dec793" x="541.964545" y="181.9597" style="fill: #cc9966; stroke: #cc9966"/>
    </g>
   </g>
   <g id="line2d_42">
    <path d="M 54.02 199.16 
L 565.2 199.16 
" clip-path="url(#p6df047d54d)" style="fill: none; stroke-dasharray: 7.4,3.2; stroke-dashoffset: 0; stroke: #cc9966; stroke-width: 2"/>
   </g>
   <g id="patch_3">
    <path d="M 54.02 382.12 
L 54.02 16.2 
" style="fill: none; stroke: #000000; stroke-width: 0.8; stroke-linejoin: miter; stroke-linecap: square"/>
   </g>
   <g id="patch_4">
    <path d="M 565.2 382.12 
L 565.2 16.2 
" style="fill: none; stroke: #000000; stroke-width: 0.8; stroke-linejoin: miter; stroke-linecap: square"/>
   </g>
   <g id="patch_5">
    <path d="M 54.02 382.12 
L 565.2 382.12 
" style="fill: none; stroke: #000000; stroke-width: 0.8; stroke-linejoin: miter; stroke-linecap: square"/>
   </g>
   <g id="patch_6">
    <path d="M 54.02 16.2 
L 565.2 16.2 
" style="fill: none; stroke: #000000; stroke-width: 0.8; stroke-linejoin: miter; stroke-linecap: square"/>
   </g>
   <g id="legend_1">
    <g id="patch_7">
     <path d="M 340.634375 53.634375 
L 558.2 53.634375 
Q 560.2 53.634375 560.2 51.634375 
L 560.2 23.2 
Q 560.2 21.2 558.2 21.2 
L 340.634375 21.2 
Q 338.634375 21.2 338.634375 23.2 
L 338.634375 51.634375 
Q 338.634375 53.634375 340.634375 53.634375 
z
" style="fill: #ffffff; opacity: 0.8; stroke: #cccccc; stroke-linejoin: miter"/>
    </g>
    <g id="line2d_43">
     <path d="M 342.634375 29.298438 
L 352.634375 29.298438 
L 362.634375 29.298438 
" style="fill: none; stroke: #cc9966; stroke-width: 3; stroke-linecap: square"/>
     <g>
      <use xlink:href="#mbcc6dec793" x="352.634375" y="29.298438" style="fill: #cc9966; stroke: #cc9966"/>
     </g>
    </g>
    <g id="text_23">
     <!-- YOLOR+ M.Avg(1 mph-No Guard) -->
     <g transform="translate(370.634375 32.798438) scale(0.1 -0.1)">
      <defs>
       <path id="DejaVuSans-Bold-59" d="M -63 4666 
L 1253 4666 
L 2316 3003 
L 3378 4666 
L 4697 4666 
L 2919 1966 
L 2919 0 
L 1716 0 
L 1716 1966 
L -63 4666 
z
" transform="scale(0.015625)"/>
       <path id="DejaVuSans-Bold-4f" d="M 2719 3878 
Q 2169 3878 1866 3472 
Q 1563 3066 1563 2328 
Q 1563 1594 1866 1187 
Q 2169 781 2719 781 
Q 3272 781 3575 1187 
Q 3878 1594 3878 2328 
Q 3878 3066 3575 3472 
Q 3272 3878 2719 3878 
z
M 2719 4750 
Q 3844 4750 4481 4106 
Q 5119 3463 5119 2328 
Q 5119 1197 4481 553 
Q 3844 -91 2719 -91 
Q 1597 -91 958 553 
Q 319 1197 319 2328 
Q 319 3463 958 4106 
Q 1597 4750 2719 4750 
z
" transform="scale(0.015625)"/>
       <path id="DejaVuSans-Bold-4c" d="M 588 4666 
L 1791 4666 
L 1791 909 
L 3903 909 
L 3903 0 
L 588 0 
L 588 4666 
z
" transform="scale(0.015625)"/>
       <path id="DejaVuSans-Bold-2b" d="M 3053 4013 
L 3053 2375 
L 4684 2375 
L 4684 1638 
L 3053 1638 
L 3053 0 
L 2309 0 
L 2309 1638 
L 678 1638 
L 678 2375 
L 2309 2375 
L 2309 4013 
L 3053 4013 
z
" transform="scale(0.015625)"/>
       <path id="DejaVuSans-Bold-4d" d="M 588 4666 
L 2119 4666 
L 3181 2169 
L 4250 4666 
L 5778 4666 
L 5778 0 
L 4641 0 
L 4641 3413 
L 3566 897 
L 2803 897 
L 1728 3413 
L 1728 0 
L 588 0 
L 588 4666 
z
" transform="scale(0.015625)"/>
       <path id="DejaVuSans-Bold-2e" d="M 653 1209 
L 1778 1209 
L 1778 0 
L 653 0 
L 653 1209 
z
" transform="scale(0.015625)"/>
       <path id="DejaVuSans-Bold-41" d="M 3419 850 
L 1538 850 
L 1241 0 
L 31 0 
L 1759 4666 
L 3194 4666 
L 4922 0 
L 3713 0 
L 3419 850 
z
M 1838 1716 
L 3116 1716 
L 2478 3572 
L 1838 1716 
z
" transform="scale(0.015625)"/>
       <path id="DejaVuSans-Bold-76" d="M 97 3500 
L 1216 3500 
L 2088 1081 
L 2956 3500 
L 4078 3500 
L 2700 0 
L 1472 0 
L 97 3500 
z
" transform="scale(0.015625)"/>
       <path id="DejaVuSans-Bold-67" d="M 2919 594 
Q 2688 288 2409 144 
Q 2131 0 1766 0 
Q 1125 0 706 504 
Q 288 1009 288 1791 
Q 288 2575 706 3076 
Q 1125 3578 1766 3578 
Q 2131 3578 2409 3434 
Q 2688 3291 2919 2981 
L 2919 3500 
L 4044 3500 
L 4044 353 
Q 4044 -491 3511 -936 
Q 2978 -1381 1966 -1381 
Q 1638 -1381 1331 -1331 
Q 1025 -1281 716 -1178 
L 716 -306 
Q 1009 -475 1290 -558 
Q 1572 -641 1856 -641 
Q 2406 -641 2662 -400 
Q 2919 -159 2919 353 
L 2919 594 
z
M 2181 2772 
Q 1834 2772 1640 2515 
Q 1447 2259 1447 1791 
Q 1447 1309 1634 1061 
Q 1822 813 2181 813 
Q 2531 813 2725 1069 
Q 2919 1325 2919 1791 
Q 2919 2259 2725 2515 
Q 2531 2772 2181 2772 
z
" transform="scale(0.015625)"/>
       <path id="DejaVuSans-Bold-31" d="M 750 831 
L 1813 831 
L 1813 3847 
L 722 3622 
L 722 4441 
L 1806 4666 
L 2950 4666 
L 2950 831 
L 4013 831 
L 4013 0 
L 750 0 
L 750 831 
z
" transform="scale(0.015625)"/>
       <path id="DejaVuSans-Bold-6d" d="M 3781 2919 
Q 3994 3244 4286 3414 
Q 4578 3584 4928 3584 
Q 5531 3584 5847 3212 
Q 6163 2841 6163 2131 
L 6163 0 
L 5038 0 
L 5038 1825 
Q 5041 1866 5042 1909 
Q 5044 1953 5044 2034 
Q 5044 2406 4934 2573 
Q 4825 2741 4581 2741 
Q 4263 2741 4089 2478 
Q 3916 2216 3909 1719 
L 3909 0 
L 2784 0 
L 2784 1825 
Q 2784 2406 2684 2573 
Q 2584 2741 2328 2741 
Q 2006 2741 1831 2477 
Q 1656 2213 1656 1722 
L 1656 0 
L 531 0 
L 531 3500 
L 1656 3500 
L 1656 2988 
Q 1863 3284 2130 3434 
Q 2397 3584 2719 3584 
Q 3081 3584 3359 3409 
Q 3638 3234 3781 2919 
z
" transform="scale(0.015625)"/>
       <path id="DejaVuSans-Bold-70" d="M 1656 506 
L 1656 -1331 
L 538 -1331 
L 538 3500 
L 1656 3500 
L 1656 2988 
Q 1888 3294 2169 3439 
Q 2450 3584 2816 3584 
Q 3463 3584 3878 3070 
Q 4294 2556 4294 1747 
Q 4294 938 3878 423 
Q 3463 -91 2816 -91 
Q 2450 -91 2169 54 
Q 1888 200 1656 506 
z
M 2400 2772 
Q 2041 2772 1848 2508 
Q 1656 2244 1656 1747 
Q 1656 1250 1848 986 
Q 2041 722 2400 722 
Q 2759 722 2948 984 
Q 3138 1247 3138 1747 
Q 3138 2247 2948 2509 
Q 2759 2772 2400 2772 
z
" transform="scale(0.015625)"/>
       <path id="DejaVuSans-Bold-68" d="M 4056 2131 
L 4056 0 
L 2931 0 
L 2931 347 
L 2931 1625 
Q 2931 2084 2911 2256 
Q 2891 2428 2841 2509 
Q 2775 2619 2662 2680 
Q 2550 2741 2406 2741 
Q 2056 2741 1856 2470 
Q 1656 2200 1656 1722 
L 1656 0 
L 538 0 
L 538 4863 
L 1656 4863 
L 1656 2988 
Q 1909 3294 2193 3439 
Q 2478 3584 2822 3584 
Q 3428 3584 3742 3212 
Q 4056 2841 4056 2131 
z
" transform="scale(0.015625)"/>
       <path id="DejaVuSans-Bold-2d" d="M 347 2297 
L 2309 2297 
L 2309 1388 
L 347 1388 
L 347 2297 
z
" transform="scale(0.015625)"/>
       <path id="DejaVuSans-Bold-6f" d="M 2203 2784 
Q 1831 2784 1636 2517 
Q 1441 2250 1441 1747 
Q 1441 1244 1636 976 
Q 1831 709 2203 709 
Q 2569 709 2762 976 
Q 2956 1244 2956 1747 
Q 2956 2250 2762 2517 
Q 2569 2784 2203 2784 
z
M 2203 3584 
Q 3106 3584 3614 3096 
Q 4122 2609 4122 1747 
Q 4122 884 3614 396 
Q 3106 -91 2203 -91 
Q 1297 -91 786 396 
Q 275 884 275 1747 
Q 275 2609 786 3096 
Q 1297 3584 2203 3584 
z
" transform="scale(0.015625)"/>
       <path id="DejaVuSans-Bold-47" d="M 4781 347 
Q 4331 128 3847 18 
Q 3363 -91 2847 -91 
Q 1681 -91 1000 561 
Q 319 1213 319 2328 
Q 319 3456 1012 4103 
Q 1706 4750 2913 4750 
Q 3378 4750 3804 4662 
Q 4231 4575 4609 4403 
L 4609 3438 
Q 4219 3659 3833 3768 
Q 3447 3878 3059 3878 
Q 2341 3878 1952 3476 
Q 1563 3075 1563 2328 
Q 1563 1588 1938 1184 
Q 2313 781 3003 781 
Q 3191 781 3352 804 
Q 3513 828 3641 878 
L 3641 1784 
L 2906 1784 
L 2906 2591 
L 4781 2591 
L 4781 347 
z
" transform="scale(0.015625)"/>
       <path id="DejaVuSans-Bold-75" d="M 500 1363 
L 500 3500 
L 1625 3500 
L 1625 3150 
Q 1625 2866 1622 2436 
Q 1619 2006 1619 1863 
Q 1619 1441 1641 1255 
Q 1663 1069 1716 984 
Q 1784 875 1895 815 
Q 2006 756 2150 756 
Q 2500 756 2700 1025 
Q 2900 1294 2900 1772 
L 2900 3500 
L 4019 3500 
L 4019 0 
L 2900 0 
L 2900 506 
Q 2647 200 2364 54 
Q 2081 -91 1741 -91 
Q 1134 -91 817 281 
Q 500 653 500 1363 
z
" transform="scale(0.015625)"/>
       <path id="DejaVuSans-Bold-61" d="M 2106 1575 
Q 1756 1575 1579 1456 
Q 1403 1338 1403 1106 
Q 1403 894 1545 773 
Q 1688 653 1941 653 
Q 2256 653 2472 879 
Q 2688 1106 2688 1447 
L 2688 1575 
L 2106 1575 
z
M 3816 1997 
L 3816 0 
L 2688 0 
L 2688 519 
Q 2463 200 2181 54 
Q 1900 -91 1497 -91 
Q 953 -91 614 226 
Q 275 544 275 1050 
Q 275 1666 698 1953 
Q 1122 2241 2028 2241 
L 2688 2241 
L 2688 2328 
Q 2688 2594 2478 2717 
Q 2269 2841 1825 2841 
Q 1466 2841 1156 2769 
Q 847 2697 581 2553 
L 581 3406 
Q 941 3494 1303 3539 
Q 1666 3584 2028 3584 
Q 2975 3584 3395 3211 
Q 3816 2838 3816 1997 
z
" transform="scale(0.015625)"/>
       <path id="DejaVuSans-Bold-72" d="M 3138 2547 
Q 2991 2616 2845 2648 
Q 2700 2681 2553 2681 
Q 2122 2681 1889 2404 
Q 1656 2128 1656 1613 
L 1656 0 
L 538 0 
L 538 3500 
L 1656 3500 
L 1656 2925 
Q 1872 3269 2151 3426 
Q 2431 3584 2822 3584 
Q 2878 3584 2943 3579 
Q 3009 3575 3134 3559 
L 3138 2547 
z
" transform="scale(0.015625)"/>
      </defs>
      <use xlink:href="#DejaVuSans-Bold-59"/>
      <use xlink:href="#DejaVuSans-Bold-4f" x="68.787109"/>
      <use xlink:href="#DejaVuSans-Bold-4c" x="153.796875"/>
      <use xlink:href="#DejaVuSans-Bold-4f" x="213.892578"/>
      <use xlink:href="#DejaVuSans-Bold-52" x="298.902344"/>
      <use xlink:href="#DejaVuSans-Bold-2b" x="375.904297"/>
      <use xlink:href="#DejaVuSans-Bold-20" x="459.693359"/>
      <use xlink:href="#DejaVuSans-Bold-4d" x="494.507812"/>
      <use xlink:href="#DejaVuSans-Bold-2e" x="594.019531"/>
      <use xlink:href="#DejaVuSans-Bold-41" x="632.007812"/>
      <use xlink:href="#DejaVuSans-Bold-76" x="705.775391"/>
      <use xlink:href="#DejaVuSans-Bold-67" x="770.960938"/>
      <use xlink:href="#DejaVuSans-Bold-28" x="842.542969"/>
      <use xlink:href="#DejaVuSans-Bold-31" x="888.246094"/>
      <use xlink:href="#DejaVuSans-Bold-20" x="957.826172"/>
      <use xlink:href="#DejaVuSans-Bold-6d" x="992.640625"/>
      <use xlink:href="#DejaVuSans-Bold-70" x="1096.839844"/>
      <use xlink:href="#DejaVuSans-Bold-68" x="1168.421875"/>
      <use xlink:href="#DejaVuSans-Bold-2d" x="1239.613281"/>
      <use xlink:href="#DejaVuSans-Bold-4e" x="1281.117188"/>
      <use xlink:href="#DejaVuSans-Bold-6f" x="1364.808594"/>
      <use xlink:href="#DejaVuSans-Bold-20" x="1433.509766"/>
      <use xlink:href="#DejaVuSans-Bold-47" x="1468.324219"/>
      <use xlink:href="#DejaVuSans-Bold-75" x="1550.404297"/>
      <use xlink:href="#DejaVuSans-Bold-61" x="1621.595703"/>
      <use xlink:href="#DejaVuSans-Bold-72" x="1689.076172"/>
      <use xlink:href="#DejaVuSans-Bold-64" x="1738.392578"/>
      <use xlink:href="#DejaVuSans-Bold-29" x="1809.974609"/>
     </g>
    </g>
    <g id="line2d_44">
     <path d="M 342.634375 44.054688 
L 352.634375 44.054688 
L 362.634375 44.054688 
" style="fill: none; stroke-dasharray: 7.4,3.2; stroke-dashoffset: 0; stroke: #cc9966; stroke-width: 2"/>
    </g>
    <g id="text_24">
     <!-- 20 dB Threshold -->
     <g transform="translate(370.634375 47.554688) scale(0.1 -0.1)">
      <defs>
       <path id="DejaVuSans-Bold-32" d="M 1844 884 
L 3897 884 
L 3897 0 
L 506 0 
L 506 884 
L 2209 2388 
Q 2438 2594 2547 2791 
Q 2656 2988 2656 3200 
Q 2656 3528 2436 3728 
Q 2216 3928 1850 3928 
Q 1569 3928 1234 3808 
Q 900 3688 519 3450 
L 519 4475 
Q 925 4609 1322 4679 
Q 1719 4750 2100 4750 
Q 2938 4750 3402 4381 
Q 3866 4013 3866 3353 
Q 3866 2972 3669 2642 
Q 3472 2313 2841 1759 
L 1844 884 
z
" transform="scale(0.015625)"/>
       <path id="DejaVuSans-Bold-30" d="M 2944 2338 
Q 2944 3213 2780 3570 
Q 2616 3928 2228 3928 
Q 1841 3928 1675 3570 
Q 1509 3213 1509 2338 
Q 1509 1453 1675 1090 
Q 1841 728 2228 728 
Q 2613 728 2778 1090 
Q 2944 1453 2944 2338 
z
M 4147 2328 
Q 4147 1169 3647 539 
Q 3147 -91 2228 -91 
Q 1306 -91 806 539 
Q 306 1169 306 2328 
Q 306 3491 806 4120 
Q 1306 4750 2228 4750 
Q 3147 4750 3647 4120 
Q 4147 3491 4147 2328 
z
" transform="scale(0.015625)"/>
       <path id="DejaVuSans-Bold-54" d="M 31 4666 
L 4331 4666 
L 4331 3756 
L 2784 3756 
L 2784 0 
L 1581 0 
L 1581 3756 
L 31 3756 
L 31 4666 
z
" transform="scale(0.015625)"/>
       <path id="DejaVuSans-Bold-73" d="M 3272 3391 
L 3272 2541 
Q 2913 2691 2578 2766 
Q 2244 2841 1947 2841 
Q 1628 2841 1473 2761 
Q 1319 2681 1319 2516 
Q 1319 2381 1436 2309 
Q 1553 2238 1856 2203 
L 2053 2175 
Q 2913 2066 3209 1816 
Q 3506 1566 3506 1031 
Q 3506 472 3093 190 
Q 2681 -91 1863 -91 
Q 1516 -91 1145 -36 
Q 775 19 384 128 
L 384 978 
Q 719 816 1070 734 
Q 1422 653 1784 653 
Q 2113 653 2278 743 
Q 2444 834 2444 1013 
Q 2444 1163 2330 1236 
Q 2216 1309 1875 1350 
L 1678 1375 
Q 931 1469 631 1722 
Q 331 1975 331 2491 
Q 331 3047 712 3315 
Q 1094 3584 1881 3584 
Q 2191 3584 2531 3537 
Q 2872 3491 3272 3391 
z
" transform="scale(0.015625)"/>
       <path id="DejaVuSans-Bold-6c" d="M 538 4863 
L 1656 4863 
L 1656 0 
L 538 0 
L 538 4863 
z
" transform="scale(0.015625)"/>
      </defs>
      <use xlink:href="#DejaVuSans-Bold-32"/>
      <use xlink:href="#DejaVuSans-Bold-30" x="69.580078"/>
      <use xlink:href="#DejaVuSans-Bold-20" x="139.160156"/>
      <use xlink:href="#DejaVuSans-Bold-64" x="173.974609"/>
      <use xlink:href="#DejaVuSans-Bold-42" x="245.556641"/>
      <use xlink:href="#DejaVuSans-Bold-20" x="321.777344"/>
      <use xlink:href="#DejaVuSans-Bold-54" x="356.591797"/>
      <use xlink:href="#DejaVuSans-Bold-68" x="424.804688"/>
      <use xlink:href="#DejaVuSans-Bold-72" x="495.996094"/>
      <use xlink:href="#DejaVuSans-Bold-65" x="545.3125"/>
      <use xlink:href="#DejaVuSans-Bold-73" x="613.134766"/>
      <use xlink:href="#DejaVuSans-Bold-68" x="672.65625"/>
      <use xlink:href="#DejaVuSans-Bold-6f" x="743.847656"/>
      <use xlink:href="#DejaVuSans-Bold-6c" x="812.548828"/>
      <use xlink:href="#DejaVuSans-Bold-64" x="846.826172"/>
     </g>
    </g>
   </g>
  </g>
 </g>
 <defs>
  <clipPath id="p6df047d54d">
   <rect x="54.02" y="16.2" width="511.18" height="365.92"/>
  </clipPath>
 </defs>
</svg>
